<svg width="120" height="120" viewBox="0 0 120 120" fill="none" xmlns="http://www.w3.org/2000/svg">
<g clip-path="url(#clip0_26393_3380)">
<path fill-rule="evenodd" clip-rule="evenodd" d="M58.125 41.25V50.625C58.125 54.7671 54.7671 58.125 50.625 58.125H43.125C34.8407 58.125 28.125 51.4093 28.125 43.125C28.125 34.8407 34.8407 28.125 43.125 28.125C43.3144 28.125 43.503 28.1285 43.6907 28.1355L43.6885 28.125L46.1208 28.1266C50.9239 28.1297 55.6133 26.6655 59.5614 23.93C63.3591 21.2986 65.625 16.972 65.625 12.3517V10.6522L65.7259 10.6123C66.4984 4.62544 71.6153 0 77.8125 0C84.5435 0 90 5.45653 90 12.1875C90 18.9185 84.5435 24.375 77.8125 24.375H75C65.6802 24.375 58.125 31.9302 58.125 41.25ZM53.4375 5.625C57.0619 5.625 60 8.56313 60 12.1875C60 15.8119 57.0619 18.75 53.4375 18.75C49.8131 18.75 46.875 15.8119 46.875 12.1875C46.875 8.56313 49.8131 5.625 53.4375 5.625Z" fill="#E01857"/>
<path fill-rule="evenodd" clip-rule="evenodd" d="M78.75 58.125H69.375C65.2329 58.125 61.875 54.7671 61.875 50.625V43.125C61.875 34.8407 68.5907 28.125 76.875 28.125C85.1593 28.125 91.875 34.8407 91.875 43.125C91.875 43.3144 91.8715 43.503 91.8645 43.6907L91.875 43.6885L91.8734 46.1208C91.8703 50.9239 93.3345 55.6133 96.07 59.5614C98.7014 63.3591 103.028 65.625 107.648 65.625H109.348L109.388 65.7259C115.375 66.4984 120 71.6153 120 77.8125C120 84.5435 114.543 90 107.812 90C101.082 90 95.625 84.5435 95.625 77.8125V75C95.625 65.6802 88.0698 58.125 78.75 58.125ZM114.375 53.4375C114.375 57.0619 111.437 60 107.812 60C104.188 60 101.25 57.0619 101.25 53.4375C101.25 49.8131 104.188 46.875 107.812 46.875C111.437 46.875 114.375 49.8131 114.375 53.4375Z" fill="#FDAB00"/>
<path fill-rule="evenodd" clip-rule="evenodd" d="M61.875 78.75V69.375C61.875 65.2329 65.2329 61.875 69.375 61.875H76.875C85.1593 61.875 91.875 68.5907 91.875 76.875C91.875 85.1593 85.1593 91.875 76.875 91.875C76.6856 91.875 76.497 91.8715 76.3093 91.8645L76.3115 91.875L73.8792 91.8734C69.0761 91.8703 64.3866 93.3345 60.4386 96.07C56.6409 98.7014 54.375 103.028 54.375 107.648V109.348L54.2741 109.388C53.5016 115.375 48.3847 120 42.1875 120C35.4565 120 30 114.543 30 107.812C30 101.082 35.4565 95.625 42.1875 95.625H45C54.3198 95.625 61.875 88.0698 61.875 78.75ZM66.5625 114.375C62.9381 114.375 60 111.437 60 107.812C60 104.188 62.9381 101.25 66.5625 101.25C70.1869 101.25 73.125 104.188 73.125 107.812C73.125 111.437 70.1869 114.375 66.5625 114.375Z" fill="#23A1EF"/>
<path fill-rule="evenodd" clip-rule="evenodd" d="M41.25 61.875H50.625C54.7671 61.875 58.125 65.2329 58.125 69.375V76.875C58.125 85.1593 51.4093 91.875 43.125 91.875C34.8407 91.875 28.125 85.1593 28.125 76.875C28.125 76.6856 28.1285 76.497 28.1355 76.3093L28.125 76.3115L28.1266 73.8792C28.1297 69.0761 26.6655 64.3866 23.93 60.4386C21.2986 56.6409 16.972 54.375 12.3517 54.375H10.6522L10.6123 54.2741C4.62544 53.5016 0 48.3847 0 42.1875C0 35.4565 5.45653 30 12.1875 30C18.9185 30 24.375 35.4565 24.375 42.1875V45C24.375 54.3198 31.9302 61.875 41.25 61.875ZM5.625 66.5625C5.625 62.9381 8.56313 60 12.1875 60C15.8119 60 18.75 62.9381 18.75 66.5625C18.75 70.1869 15.8119 73.125 12.1875 73.125C8.56313 73.125 5.625 70.1869 5.625 66.5625Z" fill="#1AB073"/>
</g>
<defs>
<clipPath id="clip0_26393_3380">
<rect width="120" height="120" fill="white"/>
</clipPath>
</defs>
</svg>
