<svg width="320" height="320" viewBox="0 0 320 320" fill="none" xmlns="http://www.w3.org/2000/svg">
<path fill-rule="evenodd" clip-rule="evenodd" d="M205.09 12.1119C202.469 4.84656 195.54 0 187.775 0H140.364C132.461 0 125.44 5.01831 122.925 12.4661L20.1276 316.832C19.6017 318.389 20.7671 320 22.4194 320H249.01C274.409 320 295 299.533 295 274.286C295 262.338 290.389 251.461 282.839 243.316C278.021 238.119 272.007 234.035 265.23 231.496C260.186 229.606 254.719 228.571 249.01 228.571H161.628C156.548 228.571 152.43 224.478 152.43 219.429C152.43 214.379 156.548 210.286 161.628 210.286H265.23C270.77 210.286 274.634 204.827 272.764 199.644L205.09 12.1119ZM224.319 173.714L174.829 36.5714H153.594L70.2197 283.429H249.01C254.09 283.429 258.208 279.335 258.208 274.286C258.208 269.236 254.09 265.143 249.01 265.143H161.628C136.228 265.143 115.637 244.676 115.637 219.429C115.637 194.181 136.228 173.714 161.628 173.714H224.319Z" fill="white"/>
</svg>
