<svg xmlns="http://www.w3.org/2000/svg" viewBox="0 0 2196.62 473.82"><defs><style>.cls-1{fill:#173253;}.cls-2{fill:#4daa50;}</style></defs><g id="Capa_2" data-name="Capa 2"><g id="Capa_1-2" data-name="Capa 1"><path class="cls-1" d="M676,202.9H561.31v94.31h-44V63.93h44v98.32H676V63.93H719.6V297.21H676Z"/><path class="cls-1" d="M760.26,296.88V63.6H934.89v42.66h-131v53.65h126.3v41H803.92v52.66h131v43.32Z"/><path class="cls-1" d="M1123.51,296.88l-68-78H1013.2v78h-44V63.27c37,0,74,.33,111,.33,55,.33,84,37,84,77.32,0,32-14.66,64.32-59,73.31l70.65,79.65v3ZM1013.2,179.24h67c28,0,40-18.66,40-37.32s-12.33-37.33-40-37.33h-67Z"/><path class="cls-1" d="M1321.13,229.23h-8.66l-74.32-101.64V297.21h-44V63.93h50.66l73,100.31,73-100.31h50.32V297.21h-44V127.92Z"/><path class="cls-1" d="M1526.1,252.89l-20,44h-47.66L1563.09,63.6h48l104.64,233.28h-48l-19.66-44Zm17.66-41h86.65l-43.33-99.31Z"/><path class="cls-1" d="M1683.73,103.59v-40h192v40h-74V296.88h-44V103.59Z"/><path class="cls-1" d="M1902.68,63.6h43.66V296.88h-43.66Z"/><path class="cls-1" d="M2194.28,63.6v2l-79,113.31,81.32,116.64v1.33H2147.3l-59.66-87.65L2028,296.88h-49.32v-1.33l81-116.64L1981,65.6v-2h48.32l58.32,87,58.32-87Z"/><path class="cls-2" d="M821.17,381.46c-.69-13.1-1.53-28.85-1.39-40.56h-.42c-3.2,11-7.1,22.72-11.84,35.68l-16.59,45.57h-9.2l-15.19-44.73c-4.46-13.24-8.22-25.37-10.87-36.52h-.28c-.28,11.71-1,27.46-1.81,41.53l-2.51,40.28H739.51l6.55-93.93h15.47l16,45.43c3.91,11.57,7.11,21.88,9.48,31.64h.42c2.37-9.48,5.71-19.79,9.89-31.64l16.73-45.43h15.47l5.85,93.93H823.54Z"/><path class="cls-2" d="M849.74,422.71v-7.52l9.62-9.34c23.13-22,33.58-33.73,33.72-47.39,0-9.2-4.46-17.7-18-17.7-8.23,0-15.05,4.18-19.24,7.67l-3.9-8.64a39.72,39.72,0,0,1,25.64-9.2c19.52,0,27.74,13.38,27.74,26.34,0,16.72-12.13,30.24-31.22,48.64l-7.25,6.69v.28h40.7v10.17Z"/><path class="cls-2" d="M1004.71,381.46c-.69-13.1-1.53-28.85-1.39-40.56h-.42c-3.2,11-7.11,22.72-11.84,35.68l-16.59,45.57h-9.2l-15.19-44.73c-4.46-13.24-8.22-25.37-10.87-36.52h-.28c-.28,11.71-1,27.46-1.81,41.53l-2.51,40.28H923l6.55-93.93h15.48l16,45.43c3.91,11.57,7.11,21.88,9.48,31.64H971c2.37-9.48,5.71-19.79,9.89-31.64l16.73-45.43h15.47l5.85,93.93h-11.85Z"/><path class="cls-2" d="M1114.81,420.2c-3.21,1.68-10.31,3.91-19.37,3.91-20.35,0-33.59-13.8-33.59-34.43s14.21-35.82,36.23-35.82a41.07,41.07,0,0,1,17,3.49l-2.79,9.48c-2.93-1.68-7.52-3.21-14.22-3.21-15.46,0-23.83,11.43-23.83,25.51,0,15.6,10,25.22,23.42,25.22a34.86,34.86,0,0,0,15-3.34Z"/><path class="cls-2" d="M1189.37,388.43c0,24.94-17.28,35.82-33.59,35.82-18.26,0-32.33-13.38-32.33-34.71,0-22.58,14.77-35.82,33.45-35.82C1176.27,353.72,1189.37,367.8,1189.37,388.43Zm-53.52.7c0,14.77,8.5,25.92,20.49,25.92,11.71,0,20.49-11,20.49-26.2,0-11.43-5.72-25.93-20.21-25.93S1135.85,376.3,1135.85,389.13Z"/><path class="cls-2" d="M1204.83,373.51c0-7-.14-12.68-.55-18.25H1215l.56,10.87h.42c3.76-6.41,10-12.41,21.18-12.41,9.2,0,16.17,5.58,19.09,13.52h.28a27.89,27.89,0,0,1,7.52-8.78c4-3.06,8.51-4.74,14.92-4.74,8.92,0,22.16,5.86,22.16,29.27v39.72h-12V384.53c0-13-4.73-20.77-14.63-20.77-7,0-12.4,5.16-14.5,11.15a20.41,20.41,0,0,0-1,6.13v41.67h-12V382.29c0-10.73-4.73-18.53-14.07-18.53-7.67,0-13.24,6.13-15.19,12.26a16.87,16.87,0,0,0-1,6v40.69h-12Z"/><path class="cls-2" d="M1321.07,373.51c0-7-.14-12.68-.56-18.25h10.73l.56,10.87h.42c3.76-6.41,10-12.41,21.18-12.41,9.2,0,16.17,5.58,19.1,13.52h.27a27.78,27.78,0,0,1,7.53-8.78c4-3.06,8.5-4.74,14.91-4.74,8.92,0,22.16,5.86,22.16,29.27v39.72h-12V384.53c0-13-4.73-20.77-14.63-20.77-7,0-12.4,5.16-14.49,11.15a20.09,20.09,0,0,0-1,6.13v41.67h-12V382.29c0-10.73-4.74-18.53-14.08-18.53-7.67,0-13.24,6.13-15.19,12.26a16.87,16.87,0,0,0-1,6v40.69h-12Z"/><path class="cls-2" d="M1493.74,404.31c0,7,.14,13.11.56,18.4h-10.87l-.7-11h-.28a25.36,25.36,0,0,1-22.3,12.55c-10.59,0-23.27-5.86-23.27-29.55V355.26h12.26v37.35c0,12.82,3.91,21.46,15.06,21.46,8.22,0,13.93-5.71,16.16-11.15a17.85,17.85,0,0,0,1.12-6.27V355.26h12.26Z"/><path class="cls-2" d="M1514.09,373.51c0-7-.14-12.68-.56-18.25h10.87l.7,11.15h.28c3.34-6.41,11.15-12.69,22.3-12.69,9.33,0,23.83,5.58,23.83,28.71v40.28h-12.27V383.83c0-10.87-4-19.93-15.61-19.93a18,18,0,0,0-17.28,18.25v40.56h-12.26Z"/><path class="cls-2" d="M1605.09,336.3c.14,4.18-2.93,7.53-7.8,7.53a7.3,7.3,0,0,1-7.39-7.53,7.47,7.47,0,0,1,7.66-7.66A7.28,7.28,0,0,1,1605.09,336.3Zm-13.66,86.41V355.26h12.27v67.45Z"/><path class="cls-2" d="M1672.13,420.2c-3.21,1.68-10.32,3.91-19.38,3.91-20.34,0-33.59-13.8-33.59-34.43s14.22-35.82,36.24-35.82a41.07,41.07,0,0,1,17,3.49l-2.79,9.48c-2.93-1.68-7.53-3.21-14.22-3.21-15.47,0-23.83,11.43-23.83,25.51,0,15.6,10,25.22,23.41,25.22a34.86,34.86,0,0,0,15-3.34Z"/><path class="cls-2" d="M1723.83,422.71l-1-8.5h-.42a25.13,25.13,0,0,1-20.63,10c-13.66,0-20.62-9.62-20.62-19.38,0-16.3,14.49-25.22,40.55-25.08v-1.4c0-5.57-1.53-15.61-15.33-15.61a33.67,33.67,0,0,0-17.56,5l-2.79-8.08c5.58-3.62,13.66-6,22.16-6,20.63,0,25.65,14.08,25.65,27.6v25.23a94.57,94.57,0,0,0,1.11,16.16ZM1722,388.29c-13.38-.28-28.57,2.09-28.57,15.19,0,7.94,5.3,11.71,11.57,11.71a16.78,16.78,0,0,0,16.3-11.29,12.8,12.8,0,0,0,.7-3.91Z"/><path class="cls-2" d="M1767.87,335.88v19.38h17.56v9.34h-17.56V401c0,8.36,2.37,13.1,9.2,13.1a27.11,27.11,0,0,0,7.1-.84l.56,9.2a29.89,29.89,0,0,1-10.87,1.68c-5.71,0-10.31-1.82-13.24-5.16-3.49-3.62-4.74-9.62-4.74-17.56V364.6h-10.45v-9.34h10.45V339.09Z"/><path class="cls-2" d="M1812.88,336.3c.14,4.18-2.93,7.53-7.81,7.53a7.29,7.29,0,0,1-7.38-7.53,7.46,7.46,0,0,1,7.66-7.66A7.28,7.28,0,0,1,1812.88,336.3Zm-13.66,86.41V355.26h12.27v67.45Z"/><path class="cls-2" d="M1892.88,388.43c0,24.94-17.28,35.82-33.59,35.82-18.26,0-32.34-13.38-32.34-34.71,0-22.58,14.78-35.82,33.45-35.82C1879.78,353.72,1892.88,367.8,1892.88,388.43Zm-53.52.7c0,14.77,8.5,25.92,20.48,25.92,11.71,0,20.49-11,20.49-26.2,0-11.43-5.71-25.93-20.21-25.93S1839.36,376.3,1839.36,389.13Z"/><path class="cls-2" d="M1908.34,373.51c0-7-.14-12.68-.55-18.25h10.87l.69,11.15h.28c3.35-6.41,11.15-12.69,22.3-12.69,9.34,0,23.83,5.58,23.83,28.71v40.28H1953.5V383.83c0-10.87-4-19.93-15.61-19.93a17.43,17.43,0,0,0-16.45,12.54,17.85,17.85,0,0,0-.83,5.71v40.56h-12.27Z"/><path class="cls-2" d="M217.66,88.93V0C105.33,11,11.36,100.24.7,212.57H89.92C100.23,148.59,153.32,98.18,217.66,88.93Z"/><path class="cls-1" d="M217.87,260.92c-.7.15.41,135-.21,212.83l-95,.07C113.72,409.13,63.94,356.94,0,346.19l.69-85.27Z"/><path class="cls-1" d="M473.83,212.57C463.17,100.24,374,10.66,262,0V89.58c62.92,10.31,112.33,60.07,122.64,123Z"/><path class="cls-2" d="M262,383.91v86c110.91-10.67,199.43-98.48,211.51-209H384.61A149.53,149.53,0,0,1,262,383.91Z"/></g></g></svg>