<svg width="64" height="64" viewBox="0 0 64 64" fill="none" xmlns="http://www.w3.org/2000/svg">
<path fill-rule="evenodd" clip-rule="evenodd" d="M41.0181 2.42237C40.4937 0.969311 39.1079 0 37.5549 0H28.0729C26.4921 0 25.088 1.00366 24.5849 2.49323L4.02552 63.3664C3.92034 63.6778 4.15343 64 4.48389 64H49.8019C54.8819 64 59 59.9066 59 54.8571C59 52.4676 58.0777 50.2921 56.5677 48.6632C55.6042 47.6239 54.4013 46.807 53.046 46.2992C52.0372 45.9211 50.9438 45.7143 49.8019 45.7143H32.3256C31.3096 45.7143 30.486 44.8956 30.486 43.8857C30.486 42.8758 31.3096 42.0571 32.3256 42.0571H53.046C54.1539 42.0571 54.9268 40.9654 54.5527 39.9288L41.0181 2.42237ZM44.8638 34.7429L34.9659 7.31429H30.7187L14.0439 56.6857H49.8019C50.8179 56.6857 51.6415 55.867 51.6415 54.8571C51.6415 53.8473 50.8179 53.0286 49.8019 53.0286H32.3256C27.2456 53.0286 23.1275 48.9352 23.1275 43.8857C23.1275 38.8363 27.2456 34.7429 32.3256 34.7429H44.8638Z" fill="#1F2D3D"/>
</svg>
