<svg width="12" height="14" viewBox="0 0 12 14" fill="none" xmlns="http://www.w3.org/2000/svg">
<path d="M10.6667 2.00033H10V0.666992H8.66667V2.00033H3.33333V0.666992H2V2.00033H1.33333C0.979711 2.00033 0.640573 2.1408 0.390524 2.39085C0.140476 2.6409 0 2.98004 0 3.33366V12.667C0 13.0206 0.140476 13.3598 0.390524 13.6098C0.640573 13.8598 0.979711 14.0003 1.33333 14.0003H10.6667C11.4 14.0003 12 13.4003 12 12.667V3.33366C12 2.60033 11.4 2.00033 10.6667 2.00033ZM6 4.00033C7.10667 4.00033 8 4.89366 8 6.00033C8 7.10699 7.10667 8.00033 6 8.00033C4.89333 8.00033 4 7.10699 4 6.00033C4 4.89366 4.89333 4.00033 6 4.00033ZM10 12.0003H2V11.3337C2 10.0003 4.66667 9.26699 6 9.26699C7.33333 9.26699 10 10.0003 10 11.3337V12.0003Z" fill="black"/>
</svg>
