<svg width="12" height="14" viewBox="0 0 12 14" fill="none" xmlns="http://www.w3.org/2000/svg">
<path d="M6 13.6663L5.83333 11.6663H5.66667C4.08889 11.6663 2.75 11.1163 1.65 10.0163C0.55 8.91634 0 7.57745 0 5.99967C0 4.4219 0.55 3.08301 1.65 1.98301C2.75 0.883008 4.08889 0.333008 5.66667 0.333008C6.45556 0.333008 7.19156 0.480119 7.87467 0.774341C8.55822 1.06901 9.15845 1.47456 9.67533 1.99101C10.1918 2.5079 10.5971 3.1079 10.8913 3.79101C11.186 4.47456 11.3333 5.21079 11.3333 5.99967C11.3333 6.83301 11.1973 7.63301 10.9253 8.39968C10.6529 9.16634 10.2807 9.87745 9.80867 10.533C9.33622 11.1886 8.77511 11.783 8.12533 12.3163C7.47511 12.8497 6.76667 13.2997 6 13.6663ZM5.65 9.64968C5.83889 9.64968 6 9.58301 6.13333 9.44967C6.26667 9.31634 6.33333 9.15523 6.33333 8.96634C6.33333 8.77745 6.26667 8.61634 6.13333 8.48301C6 8.34968 5.83889 8.28301 5.65 8.28301C5.46111 8.28301 5.3 8.34968 5.16667 8.48301C5.03333 8.61634 4.96667 8.77745 4.96667 8.96634C4.96667 9.15523 5.03333 9.31634 5.16667 9.44967C5.3 9.58301 5.46111 9.64968 5.65 9.64968ZM5.16667 7.53301H6.16667C6.16667 7.19967 6.2 6.96634 6.26667 6.83301C6.33333 6.69967 6.54445 6.45523 6.9 6.09967C7.1 5.89967 7.26667 5.68301 7.4 5.44967C7.53333 5.21634 7.6 4.96634 7.6 4.69967C7.6 4.13301 7.40844 3.7079 7.02533 3.42434C6.64178 3.14123 6.18889 2.99967 5.66667 2.99967C5.17778 2.99967 4.76667 3.13567 4.43333 3.40767C4.1 3.68012 3.86667 4.01079 3.73333 4.39967L4.66667 4.76634C4.72222 4.57745 4.82778 4.39123 4.98333 4.20767C5.13889 4.02456 5.36667 3.93301 5.66667 3.93301C5.96667 3.93301 6.19178 4.01634 6.342 4.18301C6.49178 4.34967 6.56667 4.53301 6.56667 4.73301C6.56667 4.9219 6.51111 5.09123 6.4 5.24101C6.28889 5.39123 6.15556 5.54412 6 5.69967C5.61111 6.03301 5.37511 6.29679 5.292 6.49101C5.20844 6.68568 5.16667 7.03301 5.16667 7.53301Z" fill="black"/>
</svg>
