<svg width="12" height="12" viewBox="0 0 12 12" fill="none" xmlns="http://www.w3.org/2000/svg">
<path d="M1 11.9996C0.722224 11.9996 0.486002 11.9023 0.291335 11.7076C0.0966682 11.5129 -0.000442926 11.2769 1.5186e-06 10.9996V9.73294L2.66667 7.36628V11.9996H1ZM3.33333 11.9996V9.33294H8.66667V11.9996H3.33333ZM9.33333 11.9996V6.53294L6.48334 3.99961L8.5 2.21628L11.6667 5.03294C11.7778 5.13294 11.8611 5.24694 11.9167 5.37494C11.9722 5.50294 12 5.63894 12 5.78294V10.9996C12 11.2774 11.9027 11.5136 11.708 11.7083C11.5133 11.9029 11.2773 12.0001 11 11.9996H9.33333ZM1.5186e-06 8.83294V5.78294C1.5186e-06 5.6385 0.0277793 5.49961 0.0833349 5.36628C0.13889 5.23294 0.222224 5.12183 0.333335 5.03294L5.33333 0.599609C5.42222 0.51072 5.52511 0.446943 5.642 0.408276C5.75889 0.369609 5.87822 0.350054 6 0.349609C6.12222 0.349609 6.24156 0.369165 6.358 0.408276C6.47445 0.447387 6.57733 0.511165 6.66667 0.599609L8 1.78294L1.5186e-06 8.83294Z" fill="black"/>
</svg>
