<?xml version="1.0" standalone="no"?>
<!DOCTYPE svg PUBLIC "-//W3C//DTD SVG 20010904//EN"
 "http://www.w3.org/TR/2001/REC-SVG-20010904/DTD/svg10.dtd">
<svg version="1.0" xmlns="http://www.w3.org/2000/svg"
 width="88.000000pt" height="88.000000pt" viewBox="0 0 88.000000 88.000000"
 preserveAspectRatio="xMidYMid meet">
<metadata>
Created by potrace 1.16, written by Peter Selinger 2001-2019
</metadata>
<g transform="translate(0.000000,88.000000) scale(0.100000,-0.100000)"
fill="#000000" stroke="none">
<path d="M0 440 l0 -440 440 0 440 0 0 440 0 440 -440 0 -440 0 0 -440z m623
287 c26 -15 60 -47 75 -69 25 -39 27 -50 30 -170 3 -115 5 -128 21 -128 15 0
21 14 30 75 11 63 15 75 32 75 17 0 19 -8 19 -83 0 -94 -7 -107 -61 -107 -32
0 -37 -3 -42 -29 -3 -15 -17 -42 -31 -59 -15 -16 -26 -42 -26 -56 0 -54 -103
-78 -125 -28 -9 21 -16 22 -102 22 -51 0 -93 -4 -93 -9 0 -20 -33 -41 -66 -41
-39 0 -74 29 -74 61 0 11 -11 35 -24 52 -14 18 -28 44 -31 60 -6 23 -12 27
-44 27 -53 0 -61 13 -61 102 0 62 3 80 15 85 23 8 27 0 39 -74 9 -51 16 -69
29 -71 15 -3 17 8 17 110 0 133 15 176 78 229 61 51 92 59 227 56 111 -2 123
-4 168 -30z"/>
<path d="M295 703 c-83 -43 -120 -119 -113 -229 5 -75 28 -113 79 -131 42 -15
300 -17 350 -3 60 17 83 50 87 131 3 39 -1 90 -8 114 -14 49 -60 102 -107 121
-47 20 -249 18 -288 -3z m240 -14 c62 -17 95 -54 95 -106 0 -32 -5 -45 -19
-53 -31 -16 -120 -12 -200 11 -41 11 -88 19 -105 17 -27 -3 -31 -7 -34 -35 -4
-39 18 -55 98 -73 75 -17 92 -27 88 -53 -3 -20 -10 -22 -75 -25 -94 -4 -138
14 -159 65 -32 76 3 185 73 225 57 34 167 46 238 27z"/>
</g>
</svg>
