<svg width="16" height="16" viewBox="0 0 16 16" fill="none" xmlns="http://www.w3.org/2000/svg">
<path d="M11.2545 6.34461L8.2545 4.56961C8.17744 4.52396 8.0895 4.49991 7.99993 4.5C7.91036 4.50009 7.82247 4.52431 7.7455 4.57011L4.7455 6.34511C4.6707 6.38923 4.60871 6.4521 4.56565 6.52751C4.5226 6.60293 4.49997 6.68827 4.5 6.77511V10.2251C4.5 10.4021 4.5935 10.5656 4.7455 10.6551L7.7455 12.4301C7.82237 12.4763 7.91034 12.5006 8 12.5006C8.08966 12.5006 8.17763 12.4763 8.2545 12.4301L11.2545 10.6551C11.3293 10.611 11.3913 10.5481 11.4343 10.4727C11.4774 10.3973 11.5 10.312 11.5 10.2251V6.77511C11.5 6.68821 11.4774 6.6028 11.4343 6.5273C11.3913 6.45181 11.3293 6.38884 11.2545 6.34461ZM10.5 9.94011L8 11.4191L5.5 9.94011V7.06011L8 5.58111L10.5 7.06011V9.94011Z" fill="black"/>
<path d="M3 10.092V5.535L6.1 3.703L5.5915 2.842L2.2455 4.8195C2.1707 4.86373 2.10871 4.9267 2.06566 5.00219C2.02261 5.07769 1.99998 5.1631 2 5.25V10.092C1.70838 10.1948 1.45572 10.3853 1.27668 10.6374C1.09764 10.8895 1.00099 11.1908 1 11.5C1 12.327 1.673 13 2.5 13C3.327 13 4 12.327 4 11.5C3.99901 11.1908 3.90236 10.8895 3.72332 10.6374C3.54428 10.3853 3.29162 10.1948 3 10.092ZM2.5 12C2.37126 11.9942 2.2497 11.939 2.16064 11.8459C2.07157 11.7528 2.02187 11.6289 2.02187 11.5C2.02187 11.3711 2.07157 11.2472 2.16064 11.1541C2.2497 11.061 2.37126 11.0058 2.5 11C2.62874 11.0058 2.7503 11.061 2.83936 11.1541C2.92843 11.2472 2.97813 11.3711 2.97813 11.5C2.97813 11.6289 2.92843 11.7528 2.83936 11.8459C2.7503 11.939 2.62874 11.9942 2.5 12ZM13.5 10C12.673 10 12 10.673 12 11.5C12 11.6765 12.036 11.8435 12.0925 12.001L8 14.419L4.798 12.527L4.2895 13.388L7.7455 15.43C7.82247 15.4758 7.91036 15.5 7.99993 15.5001C8.0895 15.5002 8.17744 15.4762 8.2545 15.4305L12.7345 12.783C12.9595 12.9175 13.2195 13 13.5 13C14.327 13 15 12.327 15 11.5C15 10.673 14.327 10 13.5 10ZM13.5 12C13.3713 11.9942 13.2497 11.939 13.1606 11.8459C13.0716 11.7528 13.0219 11.6289 13.0219 11.5C13.0219 11.3711 13.0716 11.2472 13.1606 11.1541C13.2497 11.061 13.3713 11.0058 13.5 11C13.6287 11.0058 13.7503 11.061 13.8394 11.1541C13.9284 11.2472 13.9781 11.3711 13.9781 11.5C13.9781 11.6289 13.9284 11.7528 13.8394 11.8459C13.7503 11.939 13.6287 11.9942 13.5 12ZM8 3.5C8.3655 3.5 8.696 3.3635 8.9565 3.146L13 5.5355V9H14V5.25C14 5.1631 13.9774 5.07769 13.9343 5.00219C13.8913 4.9267 13.8293 4.86373 13.7545 4.8195L9.471 2.2885C9.489 2.195 9.5 2.099 9.5 2C9.5 1.173 8.827 0.5 8 0.5C7.173 0.5 6.5 1.173 6.5 2C6.5 2.827 7.173 3.5 8 3.5ZM8 1.5C8.09903 1.4999 8.19587 1.52918 8.27825 1.58414C8.36063 1.6391 8.42486 1.71726 8.46281 1.80874C8.50075 1.90021 8.5107 2.00089 8.49141 2.09802C8.47211 2.19515 8.42443 2.28438 8.35441 2.35441C8.28438 2.42443 8.19515 2.47211 8.09802 2.49141C8.00089 2.5107 7.90021 2.50075 7.80874 2.46281C7.71726 2.42486 7.6391 2.36063 7.58414 2.27825C7.52918 2.19587 7.4999 2.09903 7.5 2C7.5 1.724 7.7245 1.5 8 1.5Z" fill="black"/>
</svg>
