<svg width="14" height="14" viewBox="0 0 14 14" fill="none" xmlns="http://www.w3.org/2000/svg">
<path d="M8.44683 8.13967L9.38017 6.52634C9.44017 6.42634 9.4135 6.29967 9.32683 6.22634L8.34017 5.45301C8.36017 5.30634 8.3735 5.15301 8.3735 4.99967C8.3735 4.84634 8.36017 4.69301 8.34017 4.53967L9.32683 3.76634C9.4135 3.69301 9.44017 3.56634 9.38017 3.46634L8.44683 1.85301C8.38683 1.75301 8.26683 1.71301 8.16017 1.75301L7.00017 2.21967C6.76017 2.03301 6.50017 1.87967 6.2135 1.75967L6.04017 0.526341C6.02898 0.472423 5.99979 0.423912 5.95738 0.388778C5.91498 0.353645 5.86189 0.333978 5.80683 0.333008H3.94017C3.82683 0.333008 3.72683 0.419674 3.70683 0.533008L3.5335 1.76634C3.2535 1.88634 2.98683 2.03967 2.74683 2.22634L1.58683 1.75967C1.48017 1.71967 1.36016 1.75967 1.30017 1.85967L0.366832 3.47301C0.306832 3.57301 0.333498 3.69967 0.420165 3.77301L1.40683 4.54634C1.38683 4.69301 1.3735 4.84634 1.3735 4.99967C1.3735 5.15301 1.38683 5.30634 1.40683 5.45967L0.420165 6.23301C0.333498 6.30634 0.306832 6.43301 0.366832 6.53301L1.30017 8.14634C1.36016 8.24634 1.48017 8.28634 1.58683 8.24634L2.74683 7.77967C2.98683 7.96634 3.24683 8.11967 3.5335 8.23967L3.70683 9.47301C3.72683 9.57967 3.82683 9.66634 3.94017 9.66634H5.80683C5.92017 9.66634 6.02017 9.57967 6.04017 9.46634L6.2135 8.23301C6.4935 8.11301 6.76017 7.95967 7.00017 7.77301L8.16017 8.23967C8.26683 8.27967 8.38683 8.23967 8.44683 8.13967ZM4.8735 6.33301C4.14017 6.33301 3.54016 5.73301 3.54016 4.99967C3.54016 4.26634 4.14017 3.66634 4.8735 3.66634C5.60683 3.66634 6.20683 4.26634 6.20683 4.99967C6.20683 5.73301 5.60683 6.33301 4.8735 6.33301ZM13.6135 11.4463L12.9735 10.953C12.9868 10.8597 13.0002 10.7597 13.0002 10.6597C13.0002 10.5597 12.9935 10.4597 12.9735 10.3663L13.6068 9.87301C13.6602 9.82634 13.6802 9.74634 13.6402 9.67968L13.0402 8.64634C13.0068 8.57967 12.9268 8.55967 12.8535 8.57967L12.1135 8.87967C11.9602 8.75967 11.7935 8.65967 11.6068 8.58634L11.4935 7.79967C11.4909 7.76404 11.4751 7.73066 11.4492 7.70602C11.4233 7.68138 11.3892 7.66724 11.3535 7.66634H10.1602C10.0868 7.66634 10.0202 7.71967 10.0135 7.79301L9.90017 8.57967C9.72017 8.65967 9.54683 8.75301 9.3935 8.87301L8.6535 8.57301C8.61953 8.56023 8.58213 8.55992 8.54795 8.57212C8.51377 8.58433 8.48502 8.60827 8.46683 8.63968L7.86683 9.67301C7.8335 9.73967 7.84017 9.81967 7.90017 9.86634L8.5335 10.3597C8.506 10.5543 8.506 10.7518 8.5335 10.9463L7.90017 11.4397C7.84683 11.4863 7.82683 11.5663 7.86683 11.633L8.46683 12.6663C8.50016 12.733 8.58016 12.753 8.6535 12.733L9.3935 12.433C9.54683 12.553 9.7135 12.653 9.90017 12.7263L10.0135 13.513C10.0268 13.5863 10.0868 13.6397 10.1602 13.6397H11.3535C11.4268 13.6397 11.4935 13.5863 11.5002 13.513L11.6135 12.7263C11.7935 12.6463 11.9668 12.553 12.1135 12.433L12.8602 12.733C12.9268 12.7597 13.0068 12.733 13.0468 12.6663L13.6468 11.633C13.6868 11.573 13.6668 11.493 13.6135 11.4463ZM10.7535 11.553C10.5147 11.5529 10.2857 11.458 10.117 11.2891C9.94818 11.1202 9.85341 10.8911 9.8535 10.6523C9.85359 10.4136 9.94853 10.1846 10.1174 10.0158C10.2863 9.84702 10.5154 9.75225 10.7542 9.75234C10.9929 9.75243 11.2219 9.84737 11.3907 10.0163C11.5595 10.1852 11.6543 10.4142 11.6542 10.653C11.6541 10.8918 11.5591 11.1208 11.3902 11.2895C11.2213 11.4583 10.9923 11.5531 10.7535 11.553Z" fill="black"/>
</svg>
